# Aspose.3D Wavefront OBJ Exporter
# Copyright 2004-2019 Aspose Pty Ltd.
# File created: 6/9/2020 2:20:13 PM

mtllib cube.mtl

#
# object cube
#

v -0.58755142393091688 -0.58847457238673304 -0.60823128771316448
v 0.60823128771316448 -0.58847457238673304 -0.58755142393091688
v -0.58755142393091688 0.60730813925734824 -0.58755142393091688
v 0.60823128771316448 0.60730813925734824 -0.60823128771316448
v -0.58755142393091688 -0.58847457238673304 0.60823128771316448
v 0.60823128771316448 -0.60915443616898072 0.60823128771316448
v -0.60823128771316448 0.60730813925734824 0.60823128771316448
v 0.60823128771316448 0.60730813925734824 0.60823128771316448
v -0.58755142393091688 -0.60915443616898072 -0.58755142393091688
v 0.58755142393091688 -0.58847457238673304 -0.60823128771316448
v -0.58755142393091688 0.58662827547510064 -0.60823128771316448
v 0.58755142393091688 0.58662827547510064 -0.60823128771316448
v 0.58755142393091688 -0.60915443616898072 -0.58755142393091688
v -0.58755142393091688 -0.60915443616898072 0.58755142393091688
v 0.58755142393091688 -0.60915443616898072 0.58755142393091688
v -0.60823128771316448 -0.58847457238673304 -0.58755142393091688
v -0.60823128771316448 0.58662827547510064 -0.58755142393091688
v -0.60823128771316448 -0.58847457238673304 0.58755142393091688
v -0.60823128771316448 0.58662827547510064 0.58755142393091688
v -0.60823128771316448 -0.60915443616898072 -0.60823128771316448
v 0.60823128771316448 -0.60915443616898072 -0.60823128771316448
v 0.60823128771316448 0.58662827547510064 -0.58755142393091688
v 0.60823128771316448 -0.58847457238673304 0.58755142393091688
v 0.60823128771316448 0.58662827547510064 0.58755142393091688
v -0.60823128771316448 0.60730813925734824 -0.60823128771316448
v 0.58755142393091688 0.60730813925734824 -0.58755142393091688
v -0.58755142393091688 0.60730813925734824 0.58755142393091688
v 0.58755142393091688 0.60730813925734824 0.58755142393091688
v -0.60823128771316448 -0.60915443616898072 0.60823128771316448
v 0.58755142393091688 -0.58847457238673304 0.60823128771316448
v -0.58755142393091688 0.58662827547510064 0.60823128771316448
v 0.58755142393091688 0.58662827547510064 0.60823128771316448
# 32 vertices

vn 0 0 1
vn 0 0 1
vn 0 0 1
vn 0 0 1
vn 0 0 1
vn 0 0 1
vn 0 0 1
vn 0 0 1
vn 0 0 1
vn 0 0 1
vn 0 0 1
vn 0 0 1
vn 0 0 1
vn 0 0 1
vn 0 0 1
vn 0 0 1
vn 0 1 0
vn 0 1 0
vn 0 1 0
vn 0 1 0
vn 0 1 0
vn 0 1 0
vn 0 1 0
vn 0 1 0
vn 0 0 -1
vn 0 0 -1
vn 0 0 -1
vn 0 0 -1
vn 0 0 -1
vn 0 0 -1
vn 0 0 -1
vn 0 0 -1
vn 0 0 -1
vn 0 0 -1
vn 0 0 -1
vn 0 0 -1
vn 0 0 -1
vn 0 0 -1
vn 0 0 -1
vn 0 0 -1
vn 0 -1 0
vn 0 -1 0
vn 0 -1 0
vn 0 -1 0
vn 0 -1 0
vn 0 -1 0
vn 0 -1 0
vn 0 -1 0
vn 0 -1 0
vn 0 -1 0
vn 0 -1 0
vn 0 -1 0
vn 0 -1 0
vn 0 -1 0
vn 0 -1 0
vn 0 -1 0
vn -1 0 0
vn -1 0 0
vn -1 0 0
vn -1 0 0
vn -1 0 0
vn -1 0 0
vn -1 0 0
vn -1 0 0
vn -1 0 0
vn -1 0 0
vn -1 0 0
vn -1 0 0
vn -1 0 0
vn -1 0 0
vn -1 0 0
vn -1 0 0
vn 1 0 0
vn 1 0 0
vn 1 0 0
vn 1 0 0
vn 1 0 0
vn 1 0 0
vn 1 0 0
vn 1 0 0
vn 1 0 0
vn 1 0 0
vn 1 0 0
vn 1 0 0
vn 1 0 0
vn 1 0 0
vn 1 0 0
vn 1 0 0
vn 0 1 0
vn 0 1 0
vn 0 1 0
vn 0 1 0
vn 0 1 0
vn 0 1 0
vn 0 1 0
vn 0 1 0
# 96 vertex normals

vt 0.01699998974800109 0.98300004005432128 0
vt 0.01699998974800109 0.01699998974800109 0
vt 0 0 0
vt 0 1 0
vt 0.98300004005432128 0.98300004005432128 0
vt 1 1 0
vt 0.98300004005432128 0.01699998974800109 0
vt 1 0 0
# 8 texture coords

g cube
usemtl WIREFRAME
s 1
f 7/4/1 29/3/2 5/2/3 31/1/4
f 8/6/5 7/4/6 31/1/7 32/5/8
f 6/8/9 8/6/10 32/5/11 30/7/12
f 29/3/13 6/8/14 30/7/15 5/2/16
f 4/6/17 25/4/18 3/1/19 26/5/20
f 8/8/21 4/6/22 26/5/23 28/7/24
f 20/8/25 25/6/26 11/5/27 1/7/28
f 25/6/29 4/4/30 12/1/31 11/5/32
f 4/4/33 21/3/34 10/2/35 12/1/36
f 21/3/37 20/8/38 1/7/39 10/2/40
f 20/3/41 21/8/42 13/7/43 9/2/44
f 21/8/45 6/6/46 15/5/47 13/7/48
f 6/6/49 29/4/50 14/1/51 15/5/52
f 29/4/53 20/3/54 9/2/55 14/1/56
f 20/3/57 29/8/58 18/7/59 16/2/60
f 29/8/61 7/6/62 19/5/63 18/7/64
f 7/6/65 25/4/66 17/1/67 19/5/68
f 25/4/69 20/3/70 16/2/71 17/1/72
f 21/8/73 4/6/74 22/5/75 2/7/76
f 4/6/77 8/4/78 24/1/79 22/5/80
f 8/4/81 6/3/82 23/2/83 24/1/84
f 6/3/85 21/8/86 2/7/87 23/2/88
f 25/4/89 7/3/90 27/2/91 3/1/92
f 7/3/93 8/8/94 28/7/95 27/2/96
#24 polygons


#
# object polymsh_detached1
#

v -0.58755142393091688 -0.58847457238673304 -0.60823128771316448
v -0.58755142393091688 0.58662827547510064 -0.60823128771316448
v 0.58755142393091688 0.58662827547510064 -0.60823128771316448
v 0.58755142393091688 -0.58847457238673304 -0.60823128771316448
v -0.58755142393091688 -0.60915443616898072 -0.58755142393091688
v 0.58755142393091688 -0.60915443616898072 -0.58755142393091688
v 0.58755142393091688 -0.60915443616898072 0.58755142393091688
v -0.58755142393091688 -0.60915443616898072 0.58755142393091688
v -0.60823128771316448 -0.58847457238673304 -0.58755142393091688
v -0.60823128771316448 -0.58847457238673304 0.58755142393091688
v -0.60823128771316448 0.58662827547510064 0.58755142393091688
v -0.60823128771316448 0.58662827547510064 -0.58755142393091688
v 0.60823128771316448 -0.58847457238673304 -0.58755142393091688
v 0.60823128771316448 0.58662827547510064 -0.58755142393091688
v 0.60823128771316448 0.58662827547510064 0.58755142393091688
v 0.60823128771316448 -0.58847457238673304 0.58755142393091688
v -0.58755142393091688 0.60730813925734824 -0.58755142393091688
v -0.58755142393091688 0.60730813925734824 0.58755142393091688
v 0.58755142393091688 0.60730813925734824 0.58755142393091688
v 0.58755142393091688 0.60730813925734824 -0.58755142393091688
v -0.58755142393091688 -0.58847457238673304 0.60823128771316448
v 0.58755142393091688 -0.58847457238673304 0.60823128771316448
v 0.58755142393091688 0.58662827547510064 0.60823128771316448
v -0.58755142393091688 0.58662827547510064 0.60823128771316448
# 24 vertices

vn 0 0 -1
vn 0 0 -1
vn 0 0 -1
vn 0 0 -1
vn 0 -1 0
vn 0 -1 0
vn 0 -1 0
vn 0 -1 0
vn -1 0 0
vn -1 0 0
vn -1 0 0
vn -1 0 0
vn 1 0 0
vn 1 0 0
vn 1 0 0
vn 1 0 0
vn 0 1 0
vn 0 1 0
vn 0 1 0
vn 0 1 0
vn 0 0 1
vn 0 0 1
vn 0 0 1
vn 0 0 1
# 24 vertex normals

vt 0.98300004005432128 0.01699998974800109 0
vt 0.98300004005432128 0.98300004005432128 0
vt 0.01699998974800109 0.98300004005432128 0
vt 0.01699998974800109 0.01699998974800109 0
# 4 texture coords

g polymsh_detached1
usemtl SURFACE
s 2
f 33/9/97 34/10/98 35/11/99 36/12/100
f 37/12/101 38/9/102 39/10/103 40/11/104
f 41/12/105 42/9/106 43/10/107 44/11/108
f 45/9/109 46/10/110 47/11/111 48/12/112
f 49/11/113 50/12/114 51/9/115 52/10/116
f 53/12/117 54/9/118 55/10/119 56/11/120
#6 polygons

